<svg id="visual" viewBox="0 0 900 600" width="900" height="600" xmlns="http://www.w3.org/2000/svg" xmlns:xlink="http://www.w3.org/1999/xlink" version="1.1"><rect x="0" y="0" width="900" height="600" fill="#fff"></rect><path d="M0 282L13.7 286.7C27.3 291.3 54.7 300.7 82 308.8C109.3 317 136.7 324 163.8 309.2C191 294.3 218 257.7 245.2 262.7C272.3 267.7 299.7 314.3 327 349.8C354.3 385.3 381.7 409.7 409 416.7C436.3 423.7 463.7 413.3 491 377C518.3 340.7 545.7 278.3 573 257.3C600.3 236.3 627.7 256.7 654.8 288.3C682 320 709 363 736.2 366.2C763.3 369.3 790.7 332.7 818 335C845.3 337.3 872.7 378.7 886.3 399.3L900 420L900 601L886.3 601C872.7 601 845.3 601 818 601C790.7 601 763.3 601 736.2 601C709 601 682 601 654.8 601C627.7 601 600.3 601 573 601C545.7 601 518.3 601 491 601C463.7 601 436.3 601 409 601C381.7 601 354.3 601 327 601C299.7 601 272.3 601 245.2 601C218 601 191 601 163.8 601C136.7 601 109.3 601 82 601C54.7 601 27.3 601 13.7 601L0 601Z" fill="#f1f0eb" stroke-linecap="round" stroke-linejoin="miter"></path></svg>