<svg id="visual" viewBox="0 0 900 600" width="900" height="600" xmlns="http://www.w3.org/2000/svg" xmlns:xlink="http://www.w3.org/1999/xlink" version="1.1"><rect x="0" y="0" width="900" height="600" fill="#fff"></rect><path d="M0 458L21.5 453.2C43 448.3 86 438.7 128.8 449.3C171.7 460 214.3 491 257.2 489.2C300 487.3 343 452.7 385.8 439C428.7 425.3 471.3 432.7 514.2 438.5C557 444.3 600 448.7 642.8 452.3C685.7 456 728.3 459 771.2 449.7C814 440.3 857 418.7 878.5 407.8L900 397L900 601L878.5 601C857 601 814 601 771.2 601C728.3 601 685.7 601 642.8 601C600 601 557 601 514.2 601C471.3 601 428.7 601 385.8 601C343 601 300 601 257.2 601C214.3 601 171.7 601 128.8 601C86 601 43 601 21.5 601L0 601Z" fill="#fcfbf3" stroke-linecap="round" stroke-linejoin="miter"></path></svg>