<svg id="visual" viewBox="0 0 900 600" width="900" height="600" xmlns="http://www.w3.org/2000/svg" xmlns:xlink="http://www.w3.org/1999/xlink" version="1.1"><rect x="0" y="0" width="900" height="600" fill="#fff"></rect><defs><linearGradient id="grad1_0" x1="33.3%" y1="0%" x2="100%" y2="100%"><stop offset="20%" stop-color="#efede4" stop-opacity="1"></stop><stop offset="80%" stop-color="#efede4" stop-opacity="1"></stop></linearGradient></defs><defs><linearGradient id="grad1_1" x1="33.3%" y1="0%" x2="100%" y2="100%"><stop offset="20%" stop-color="#efede4" stop-opacity="1"></stop><stop offset="80%" stop-color="#f3f1eb" stop-opacity="1"></stop></linearGradient></defs><defs><linearGradient id="grad1_2" x1="33.3%" y1="0%" x2="100%" y2="100%"><stop offset="20%" stop-color="#f7f6f1" stop-opacity="1"></stop><stop offset="80%" stop-color="#f3f1eb" stop-opacity="1"></stop></linearGradient></defs><defs><linearGradient id="grad1_3" x1="33.3%" y1="0%" x2="100%" y2="100%"><stop offset="20%" stop-color="#f7f6f1" stop-opacity="1"></stop><stop offset="80%" stop-color="#fbfaf8" stop-opacity="1"></stop></linearGradient></defs><defs><linearGradient id="grad1_4" x1="33.3%" y1="0%" x2="100%" y2="100%"><stop offset="20%" stop-color="#ffffff" stop-opacity="1"></stop><stop offset="80%" stop-color="#fbfaf8" stop-opacity="1"></stop></linearGradient></defs><defs><linearGradient id="grad2_0" x1="0%" y1="0%" x2="66.7%" y2="100%"><stop offset="20%" stop-color="#efede4" stop-opacity="1"></stop><stop offset="80%" stop-color="#efede4" stop-opacity="1"></stop></linearGradient></defs><defs><linearGradient id="grad2_1" x1="0%" y1="0%" x2="66.7%" y2="100%"><stop offset="20%" stop-color="#f3f1eb" stop-opacity="1"></stop><stop offset="80%" stop-color="#efede4" stop-opacity="1"></stop></linearGradient></defs><defs><linearGradient id="grad2_2" x1="0%" y1="0%" x2="66.7%" y2="100%"><stop offset="20%" stop-color="#f3f1eb" stop-opacity="1"></stop><stop offset="80%" stop-color="#f7f6f1" stop-opacity="1"></stop></linearGradient></defs><defs><linearGradient id="grad2_3" x1="0%" y1="0%" x2="66.7%" y2="100%"><stop offset="20%" stop-color="#fbfaf8" stop-opacity="1"></stop><stop offset="80%" stop-color="#f7f6f1" stop-opacity="1"></stop></linearGradient></defs><defs><linearGradient id="grad2_4" x1="0%" y1="0%" x2="66.7%" y2="100%"><stop offset="20%" stop-color="#fbfaf8" stop-opacity="1"></stop><stop offset="80%" stop-color="#ffffff" stop-opacity="1"></stop></linearGradient></defs><g transform="translate(900, 0)"><path d="M0 405.6C-31.4 403.5 -62.8 401.4 -88.3 387C-113.9 372.7 -133.6 346.2 -161.4 335.2C-189.2 324.1 -225 328.6 -252.9 317.1C-280.8 305.7 -300.8 278.2 -312 248.8C-323.1 219.3 -325.3 187.8 -333.4 160.5C-341.5 133.3 -355.5 110.2 -368.5 84.1C-381.6 58.1 -393.6 29 -405.6 0L0 0Z" fill="#fdfdfc"></path><path d="M0 324.5C-25.1 322.8 -50.2 321.1 -70.7 309.6C-91.1 298.2 -106.9 277 -129.1 268.1C-151.3 259.3 -180 262.9 -202.3 253.7C-224.7 244.5 -240.7 222.6 -249.6 199C-258.4 175.5 -260.2 150.3 -266.7 128.4C-273.2 106.6 -284.4 88.1 -294.8 67.3C-305.2 46.4 -314.9 23.2 -324.5 0L0 0Z" fill="#f9f8f5"></path><path d="M0 243.4C-18.8 242.1 -37.7 240.8 -53 232.2C-68.3 223.6 -80.2 207.7 -96.8 201.1C-113.5 194.5 -135 197.2 -151.7 190.3C-168.5 183.4 -180.5 166.9 -187.2 149.3C-193.8 131.6 -195.2 112.7 -200 96.3C-204.9 80 -213.3 66.1 -221.1 50.5C-228.9 34.8 -236.2 17.4 -243.4 0L0 0Z" fill="#f5f4ee"></path><path d="M0 162.2C-12.6 161.4 -25.1 160.5 -35.3 154.8C-45.6 149.1 -53.5 138.5 -64.6 134.1C-75.7 129.7 -90 131.4 -101.2 126.9C-112.3 122.3 -120.3 111.3 -124.8 99.5C-129.2 87.7 -130.1 75.1 -133.3 64.2C-136.6 53.3 -142.2 44.1 -147.4 33.6C-152.6 23.2 -157.4 11.6 -162.2 0L0 0Z" fill="#f1efe7"></path><path d="M0 81.1C-6.3 80.7 -12.6 80.3 -17.7 77.4C-22.8 74.5 -26.7 69.2 -32.3 67C-37.8 64.8 -45 65.7 -50.6 63.4C-56.2 61.1 -60.2 55.6 -62.4 49.8C-64.6 43.9 -65.1 37.6 -66.7 32.1C-68.3 26.7 -71.1 22 -73.7 16.8C-76.3 11.6 -78.7 5.8 -81.1 0L0 0Z" fill="#efede4"></path></g><g transform="translate(0, 600)"><path d="M0 -405.6C25.2 -384.3 50.4 -363.1 82.6 -361.7C114.7 -360.3 153.7 -378.9 176 -365.5C198.3 -352 203.9 -306.5 227.6 -285.4C251.2 -264.2 292.9 -267.5 313.5 -250C334.2 -232.5 333.8 -194.3 340.6 -164C347.4 -133.7 361.4 -111.2 373.4 -85.2C385.4 -59.2 395.5 -29.6 405.6 0L0 0Z" fill="#fdfdfc"></path><path d="M0 -324.5C20.2 -307.5 40.4 -290.4 66 -289.4C91.7 -288.3 122.9 -303.1 140.8 -292.4C158.6 -281.6 163.1 -245.2 182.1 -228.3C201 -211.4 234.3 -214 250.8 -200C267.3 -186 267 -155.5 272.5 -131.2C277.9 -106.9 289.1 -89 298.7 -68.2C308.4 -47.4 316.4 -23.7 324.5 0L0 0Z" fill="#f9f8f5"></path><path d="M0 -243.4C15.1 -230.6 30.3 -217.8 49.5 -217C68.8 -216.2 92.2 -227.4 105.6 -219.3C119 -211.2 122.4 -183.9 136.5 -171.2C150.7 -158.5 175.7 -160.5 188.1 -150C200.5 -139.5 200.3 -116.6 204.3 -98.4C208.4 -80.2 216.8 -66.7 224 -51.1C231.3 -35.5 237.3 -17.8 243.4 0L0 0Z" fill="#f5f4ee"></path><path d="M0 -162.2C10.1 -153.7 20.2 -145.2 33 -144.7C45.9 -144.1 61.5 -151.6 70.4 -146.2C79.3 -140.8 81.6 -122.6 91 -114.1C100.5 -105.7 117.2 -107 125.4 -100C133.7 -93 133.5 -77.7 136.2 -65.6C138.9 -53.5 144.5 -44.5 149.4 -34.1C154.2 -23.7 158.2 -11.8 162.2 0L0 0Z" fill="#f1efe7"></path><path d="M0 -81.1C5 -76.9 10.1 -72.6 16.5 -72.3C22.9 -72.1 30.7 -75.8 35.2 -73.1C39.7 -70.4 40.8 -61.3 45.5 -57.1C50.2 -52.8 58.6 -53.5 62.7 -50C66.8 -46.5 66.8 -38.9 68.1 -32.8C69.5 -26.7 72.3 -22.2 74.7 -17C77.1 -11.8 79.1 -5.9 81.1 0L0 0Z" fill="#efede4"></path></g></svg>