<svg id="visual" viewBox="0 0 900 600" width="900" height="600" xmlns="http://www.w3.org/2000/svg" xmlns:xlink="http://www.w3.org/1999/xlink" version="1.1"><rect x="0" y="0" width="900" height="600" fill="#fff"></rect><defs><linearGradient id="grad1_0" x1="33.3%" y1="100%" x2="100%" y2="0%"><stop offset="20%" stop-color="#efede4" stop-opacity="1"></stop><stop offset="80%" stop-color="#efede4" stop-opacity="1"></stop></linearGradient></defs><defs><linearGradient id="grad1_1" x1="33.3%" y1="100%" x2="100%" y2="0%"><stop offset="20%" stop-color="#efede4" stop-opacity="1"></stop><stop offset="80%" stop-color="#f3f1eb" stop-opacity="1"></stop></linearGradient></defs><defs><linearGradient id="grad1_2" x1="33.3%" y1="100%" x2="100%" y2="0%"><stop offset="20%" stop-color="#f7f6f1" stop-opacity="1"></stop><stop offset="80%" stop-color="#f3f1eb" stop-opacity="1"></stop></linearGradient></defs><defs><linearGradient id="grad1_3" x1="33.3%" y1="100%" x2="100%" y2="0%"><stop offset="20%" stop-color="#f7f6f1" stop-opacity="1"></stop><stop offset="80%" stop-color="#fbfaf8" stop-opacity="1"></stop></linearGradient></defs><defs><linearGradient id="grad1_4" x1="33.3%" y1="100%" x2="100%" y2="0%"><stop offset="20%" stop-color="#ffffff" stop-opacity="1"></stop><stop offset="80%" stop-color="#fbfaf8" stop-opacity="1"></stop></linearGradient></defs><defs><linearGradient id="grad2_0" x1="0%" y1="100%" x2="66.7%" y2="0%"><stop offset="20%" stop-color="#efede4" stop-opacity="1"></stop><stop offset="80%" stop-color="#efede4" stop-opacity="1"></stop></linearGradient></defs><defs><linearGradient id="grad2_1" x1="0%" y1="100%" x2="66.7%" y2="0%"><stop offset="20%" stop-color="#f3f1eb" stop-opacity="1"></stop><stop offset="80%" stop-color="#efede4" stop-opacity="1"></stop></linearGradient></defs><defs><linearGradient id="grad2_2" x1="0%" y1="100%" x2="66.7%" y2="0%"><stop offset="20%" stop-color="#f3f1eb" stop-opacity="1"></stop><stop offset="80%" stop-color="#f7f6f1" stop-opacity="1"></stop></linearGradient></defs><defs><linearGradient id="grad2_3" x1="0%" y1="100%" x2="66.7%" y2="0%"><stop offset="20%" stop-color="#fbfaf8" stop-opacity="1"></stop><stop offset="80%" stop-color="#f7f6f1" stop-opacity="1"></stop></linearGradient></defs><defs><linearGradient id="grad2_4" x1="0%" y1="100%" x2="66.7%" y2="0%"><stop offset="20%" stop-color="#fbfaf8" stop-opacity="1"></stop><stop offset="80%" stop-color="#ffffff" stop-opacity="1"></stop></linearGradient></defs><g transform="translate(900, 600)"><path d="M-405.6 0C-403.5 -31.4 -401.4 -62.8 -387 -88.3C-372.7 -113.9 -346.2 -133.6 -335.2 -161.4C-324.1 -189.2 -328.6 -225 -317.1 -252.9C-305.7 -280.8 -278.2 -300.8 -248.8 -312C-219.3 -323.1 -187.8 -325.3 -160.5 -333.4C-133.3 -341.5 -110.2 -355.5 -84.1 -368.5C-58.1 -381.6 -29 -393.6 0 -405.6L0 0Z" fill="#fdfdfc"></path><path d="M-324.5 0C-322.8 -25.1 -321.1 -50.2 -309.6 -70.7C-298.2 -91.1 -277 -106.9 -268.1 -129.1C-259.3 -151.3 -262.9 -180 -253.7 -202.3C-244.5 -224.7 -222.6 -240.7 -199 -249.6C-175.5 -258.4 -150.3 -260.2 -128.4 -266.7C-106.6 -273.2 -88.1 -284.4 -67.3 -294.8C-46.4 -305.2 -23.2 -314.9 0 -324.5L0 0Z" fill="#f9f8f5"></path><path d="M-243.4 0C-242.1 -18.8 -240.8 -37.7 -232.2 -53C-223.6 -68.3 -207.7 -80.2 -201.1 -96.8C-194.5 -113.5 -197.2 -135 -190.3 -151.7C-183.4 -168.5 -166.9 -180.5 -149.3 -187.2C-131.6 -193.8 -112.7 -195.2 -96.3 -200C-80 -204.9 -66.1 -213.3 -50.5 -221.1C-34.8 -228.9 -17.4 -236.2 0 -243.4L0 0Z" fill="#f5f4ee"></path><path d="M-162.2 0C-161.4 -12.6 -160.5 -25.1 -154.8 -35.3C-149.1 -45.6 -138.5 -53.5 -134.1 -64.6C-129.7 -75.7 -131.4 -90 -126.9 -101.2C-122.3 -112.3 -111.3 -120.3 -99.5 -124.8C-87.7 -129.2 -75.1 -130.1 -64.2 -133.3C-53.3 -136.6 -44.1 -142.2 -33.6 -147.4C-23.2 -152.6 -11.6 -157.4 0 -162.2L0 0Z" fill="#f1efe7"></path><path d="M-81.1 0C-80.7 -6.3 -80.3 -12.6 -77.4 -17.7C-74.5 -22.8 -69.2 -26.7 -67 -32.3C-64.8 -37.8 -65.7 -45 -63.4 -50.6C-61.1 -56.2 -55.6 -60.2 -49.8 -62.4C-43.9 -64.6 -37.6 -65.1 -32.1 -66.7C-26.7 -68.3 -22 -71.1 -16.8 -73.7C-11.6 -76.3 -5.8 -78.7 0 -81.1L0 0Z" fill="#efede4"></path></g><g transform="translate(0, 0)"><path d="M405.6 0C384.3 25.2 363.1 50.4 361.7 82.6C360.3 114.7 378.9 153.7 365.5 176C352 198.3 306.5 203.9 285.4 227.6C264.2 251.2 267.5 292.9 250 313.5C232.5 334.2 194.3 333.8 164 340.6C133.7 347.4 111.2 361.4 85.2 373.4C59.2 385.4 29.6 395.5 0 405.6L0 0Z" fill="#fdfdfc"></path><path d="M324.5 0C307.5 20.2 290.4 40.4 289.4 66C288.3 91.7 303.1 122.9 292.4 140.8C281.6 158.6 245.2 163.1 228.3 182.1C211.4 201 214 234.3 200 250.8C186 267.3 155.5 267 131.2 272.5C106.9 277.9 89 289.1 68.2 298.7C47.4 308.4 23.7 316.4 0 324.5L0 0Z" fill="#f9f8f5"></path><path d="M243.4 0C230.6 15.1 217.8 30.3 217 49.5C216.2 68.8 227.4 92.2 219.3 105.6C211.2 119 183.9 122.4 171.2 136.5C158.5 150.7 160.5 175.7 150 188.1C139.5 200.5 116.6 200.3 98.4 204.3C80.2 208.4 66.7 216.8 51.1 224C35.5 231.3 17.8 237.3 0 243.4L0 0Z" fill="#f5f4ee"></path><path d="M162.2 0C153.7 10.1 145.2 20.2 144.7 33C144.1 45.9 151.6 61.5 146.2 70.4C140.8 79.3 122.6 81.6 114.1 91C105.7 100.5 107 117.2 100 125.4C93 133.7 77.7 133.5 65.6 136.2C53.5 138.9 44.5 144.5 34.1 149.4C23.7 154.2 11.8 158.2 0 162.2L0 0Z" fill="#f1efe7"></path><path d="M81.1 0C76.9 5 72.6 10.1 72.3 16.5C72.1 22.9 75.8 30.7 73.1 35.2C70.4 39.7 61.3 40.8 57.1 45.5C52.8 50.2 53.5 58.6 50 62.7C46.5 66.8 38.9 66.8 32.8 68.1C26.7 69.5 22.2 72.3 17 74.7C11.8 77.1 5.9 79.1 0 81.1L0 0Z" fill="#efede4"></path></g></svg>