<svg id="visual" viewBox="0 0 900 600" width="900" height="600" xmlns="http://www.w3.org/2000/svg" xmlns:xlink="http://www.w3.org/1999/xlink" version="1.1"><rect x="0" y="0" width="900" height="600" fill="#fff"></rect><path d="M0 418L21.5 418.7C43 419.3 86 420.7 128.8 417.8C171.7 415 214.3 408 257.2 401.5C300 395 343 389 385.8 388.7C428.7 388.3 471.3 393.7 514.2 398.2C557 402.7 600 406.3 642.8 410.3C685.7 414.3 728.3 418.7 771.2 416.8C814 415 857 407 878.5 403L900 399L900 601L878.5 601C857 601 814 601 771.2 601C728.3 601 685.7 601 642.8 601C600 601 557 601 514.2 601C471.3 601 428.7 601 385.8 601C343 601 300 601 257.2 601C214.3 601 171.7 601 128.8 601C86 601 43 601 21.5 601L0 601Z" fill="#efece0"></path><path d="M0 474L21.5 472.8C43 471.7 86 469.3 128.8 468.2C171.7 467 214.3 467 257.2 470C300 473 343 479 385.8 481C428.7 483 471.3 481 514.2 473.8C557 466.7 600 454.3 642.8 449C685.7 443.7 728.3 445.3 771.2 452.3C814 459.3 857 471.7 878.5 477.8L900 484L900 601L878.5 601C857 601 814 601 771.2 601C728.3 601 685.7 601 642.8 601C600 601 557 601 514.2 601C471.3 601 428.7 601 385.8 601C343 601 300 601 257.2 601C214.3 601 171.7 601 128.8 601C86 601 43 601 21.5 601L0 601Z" fill="#eeece6"></path><path d="M0 545L21.5 542.8C43 540.7 86 536.3 128.8 531.3C171.7 526.3 214.3 520.7 257.2 515.8C300 511 343 507 385.8 506.3C428.7 505.7 471.3 508.3 514.2 509.3C557 510.3 600 509.7 642.8 508.2C685.7 506.7 728.3 504.3 771.2 505.7C814 507 857 512 878.5 514.5L900 517L900 601L878.5 601C857 601 814 601 771.2 601C728.3 601 685.7 601 642.8 601C600 601 557 601 514.2 601C471.3 601 428.7 601 385.8 601C343 601 300 601 257.2 601C214.3 601 171.7 601 128.8 601C86 601 43 601 21.5 601L0 601Z" fill="#ececec"></path></svg>