<svg id="visual" viewBox="0 0 900 600" width="900" height="600" xmlns="http://www.w3.org/2000/svg" xmlns:xlink="http://www.w3.org/1999/xlink" version="1.1"><rect x="0" y="0" width="900" height="600" fill="#f1f1f1"></rect><defs><linearGradient id="grad1_0" x1="33.3%" y1="0%" x2="100%" y2="100%"><stop offset="20%" stop-color="#f1f1f1" stop-opacity="1"></stop><stop offset="80%" stop-color="#f1f1f1" stop-opacity="1"></stop></linearGradient></defs><defs><linearGradient id="grad2_0" x1="0%" y1="0%" x2="66.7%" y2="100%"><stop offset="20%" stop-color="#f1f1f1" stop-opacity="1"></stop><stop offset="80%" stop-color="#f1f1f1" stop-opacity="1"></stop></linearGradient></defs><g transform="translate(900, 0)"><path d="M0 378.6C-18.5 337.4 -36.9 296.2 -67.9 297.4C-98.8 298.5 -142.3 342.1 -158.4 328.9C-174.5 315.6 -163.3 245.6 -169.6 212.7C-175.9 179.7 -199.7 184 -225.9 180.2C-252.2 176.4 -280.9 164.6 -307.2 148C-333.6 131.3 -357.6 109.7 -369.1 84.2C-380.6 58.8 -379.6 29.4 -378.6 0L0 0Z" fill="#efede4"></path></g><g transform="translate(0, 600)"><path d="M0 -378.6C21.7 -335.5 43.4 -292.4 61.2 -268.1C78.9 -243.8 92.7 -238.3 115.4 -239.7C138.1 -241 169.8 -249.2 198.9 -249.4C228 -249.6 254.7 -241.7 286.2 -228.2C317.6 -214.7 354 -195.5 341.1 -164.3C328.2 -133 266.2 -89.7 264.2 -60.3C262.3 -30.9 320.4 -15.5 378.6 0L0 0Z" fill="#efede4"></path></g></svg>