<svg id="visual" viewBox="0 0 900 600" width="900" height="600" xmlns="http://www.w3.org/2000/svg" xmlns:xlink="http://www.w3.org/1999/xlink" version="1.1"><g transform="translate(426.3092331430399 332.71186162521764)"><path d="M121 -194.8C194.7 -140.9 318.4 -171.4 346.6 -147.2C374.9 -123.1 307.7 -44.2 274.6 24.6C241.5 93.3 242.4 152.1 211.6 178C180.8 203.9 118.3 196.9 55.3 238.1C-7.6 279.2 -71 368.4 -143.4 391.5C-215.8 414.5 -297.2 371.3 -305.3 299.4C-313.5 227.5 -248.3 126.9 -232.8 50.5C-217.3 -25.9 -251.5 -78.2 -265.9 -152.5C-280.3 -226.9 -275.1 -323.3 -227.5 -389.1C-179.9 -454.9 -89.9 -489.9 -33.1 -438.4C23.7 -386.8 47.3 -248.6 121 -194.8" fill="#202c3a"></path></g></svg>